<?xml version="1.0" encoding="UTF-8" standalone="no"?>
<svg
   xmlns:dc="http://purl.org/dc/elements/1.1/"
   xmlns:cc="http://creativecommons.org/ns#"
   xmlns:rdf="http://www.w3.org/1999/02/22-rdf-syntax-ns#"
   xmlns:svg="http://www.w3.org/2000/svg"
   xmlns="http://www.w3.org/2000/svg"
   viewBox="0 0 2491.25 627.5"
   height="627.5"
   width="2491.25"
   xml:space="preserve"
   version="1.1"
   id="svg2"><metadata
     id="metadata8"><rdf:RDF><cc:Work
         rdf:about=""><dc:format>image/svg+xml</dc:format><dc:type
           rdf:resource="http://purl.org/dc/dcmitype/StillImage" /></cc:Work></rdf:RDF></metadata><defs
     id="defs6" /><g
     transform="matrix(1.25,0,0,-1.25,0,627.5)"
     id="g10"><g
       transform="scale(0.135855,0.135855)"
       id="g12"><path
         id="path14"
         style="fill:#ffffff;fill-opacity:1;fill-rule:nonzero;stroke:none"
         d="m 0,3695.1 1725.66,0 c -28.41,-4.34 -56.83,-7.58 -85.09,-12.36 -132.94,-12.44 -263.89,-44.31 -390.12,-87.3 -79.43,-27.01 -157.6,-58.96 -231.28,-99.08 -58.959,-25.17 -114.752,-57.34 -167.236,-94.14 -80.528,-49.69 -153.985,-109.53 -226.786,-169.67 -48.875,-44.46 -94.511,-92.45 -140.515,-139.85 -30.031,-32.9 -58.961,-66.69 -86.711,-101.51 -28.41,-36.06 -55.574,-73.16 -80.598,-111.66 -29.371,-43.58 -58.519,-87.67 -81.926,-134.85 -19.8,-31.28 -36.878,-64.26 -52.261,-97.97 -18.328,-36.66 -34.672,-74.34 -49.614,-112.55 C 117.035,2490.22 98.1914,2446.94 86.7852,2401.3 41.7344,2260.27 16.8555,2112.98 7.06641,1965.4 L 0,1965.25 0,3695.1" /><path
         id="path16"
         style="fill:#c7e4d8;fill-opacity:1;fill-rule:nonzero;stroke:none"
         d="m 1725.66,3695.1 251.07,0 c 74.72,-11.99 150.53,-16.41 224.58,-33.05 -14.06,-17.66 -6.92,-26.42 21.49,-26.2 376.21,-120.13 676.75,-437.23 780.47,-817.41 -33.06,49.97 -70.89,96.57 -103.64,146.7 -157.75,389.24 -566.12,661.43 -985.68,671.15 -409.41,23.55 -833.39,-201.91 -1023.005,-567.88 -38.715,-51.53 -85.824,-95.91 -124.543,-147.51 77.067,202.64 207.352,385.99 379.738,518.42 138.16,112.62 306.36,177.1 474.85,228.11 10.74,0.73 22.89,0.29 19.58,15.31 28.26,4.78 56.68,8.02 85.09,12.36" /><path
         id="path18"
         style="fill:#ffffff;fill-opacity:1;fill-rule:nonzero;stroke:none"
         d="M 1976.73,3695.1 14670,3695.1 14670,0 1954.65,0 c 265.94,22.1563 530.64,90.0977 765.08,219.867 62.49,33.27 124.98,67.645 182.1,109.602 53.81,37.316 105.78,77.215 155.24,120.054 40.48,40.336 86.86,74.344 125.28,116.668 53.88,63.594 112.55,123.735 158.85,193.368 27.23,37.242 56.82,73.457 76.48,115.414 25.39,34.597 45.93,72.285 65.8,110.191 22.6,38.276 39.97,79.056 56.46,120.206 31.65,65.43 56.97,134.4 75.89,204.55 29.37,101.43 59.1,204.85 63.67,310.99 37.02,240.26 15.53,487.73 -48.88,721.58 -20.24,65.14 -40.04,130.72 -66.91,193.59 -20.68,51.74 -42.39,103.27 -68.38,152.58 -23.55,44.17 -47.92,87.97 -73.53,130.95 -34.45,53.59 -70.3,106.29 -109.53,156.5 -44.61,55.64 -90.09,110.92 -139.19,162.67 -75.15,75.59 -155.9,146.26 -243.35,207.2 -45.19,32.76 -91.35,64.19 -139.12,92.97 -71.69,40.12 -143.46,80.6 -220.16,110.56 -118.65,50.56 -242.61,87.59 -369.14,112.54 -74.05,16.64 -149.86,21.06 -224.58,33.05" /><path
         id="path20"
         style="fill:#bfdfe0;fill-opacity:1;fill-rule:nonzero;stroke:none"
         d="m 1250.45,3595.44 c 126.23,42.99 257.18,74.86 390.12,87.3 3.31,-15.02 -8.84,-14.58 -19.58,-15.31 C 1452.5,3616.42 1284.3,3551.94 1146.14,3439.32 973.754,3306.89 843.469,3123.54 766.402,2920.9 c -23.039,-35.33 -47.109,-70.15 -72.797,-103.72 72.579,317.11 286.555,596.01 566.625,759.86 11.56,4.41 -7.65,12.73 -9.78,18.4" /><path
         id="path22"
         style="fill:#bfdfe0;fill-opacity:1;fill-rule:nonzero;stroke:none"
         d="m 2222.8,3635.85 c -28.41,-0.22 -35.55,8.54 -21.49,26.2 126.53,-24.95 250.49,-61.98 369.14,-112.54 -8.61,-2.43 -44.75,2.94 -23.18,-9.28 286.03,-194.84 483.45,-511.64 528.72,-855.02 -24,44.53 -49.1,88.47 -72.72,133.23 -103.72,380.18 -404.26,697.28 -780.47,817.41" /><path
         id="path24"
         style="fill:#cfe8d0;fill-opacity:1;fill-rule:nonzero;stroke:none"
         d="m 890.945,3068.41 c 189.615,365.97 613.595,591.43 1023.005,567.88 419.56,-9.72 827.93,-281.91 985.68,-671.15 -40.27,45.71 -84.06,88.03 -125.14,132.93 -229.21,378.64 -714.43,561.41 -1141.43,466.09 -236.13,-55.95 -468.59,-183.29 -611.24,-383.43 -43.648,-37.32 -83.91,-78.91 -130.875,-112.32" /><path
         id="path26"
         style="fill:#b6dbe8;fill-opacity:1;fill-rule:nonzero;stroke:none"
         d="m 1019.17,3496.36 c 73.68,40.12 151.85,72.07 231.28,99.08 2.13,-5.67 21.34,-13.99 9.78,-18.4 -280.07,-163.85 -494.046,-442.75 -566.625,-759.86 -24.144,-46.81 -48.8,-93.48 -74.269,-139.63 33.785,309.82 188.215,601.59 419.854,809.47 15.97,12.21 -12.29,6.69 -20.02,9.34" /><path
         id="path28"
         style="fill:#d7ecc9;fill-opacity:1;fill-rule:nonzero;stroke:none"
         d="m 1633.06,3564.16 c 427,95.32 912.22,-87.45 1141.43,-466.09 -66.61,59.55 -139.41,111.44 -212.87,162.01 -24.14,53.3 -79.57,79.65 -125.72,110.27 -355.45,234.07 -861.87,222.29 -1196.64,-44.24 1.1,-2.5 3.31,-7.51 4.42,-10.01 -79.5,-35.48 -149.72,-87.45 -221.86,-135.37 142.65,200.14 375.11,327.48 611.24,383.43" /><path
         id="path30"
         style="fill:#b6dae9;fill-opacity:1;fill-rule:nonzero;stroke:none"
         d="m 2547.27,3540.23 c -21.57,12.22 14.57,6.85 23.18,9.28 76.7,-29.96 148.47,-70.44 220.16,-110.56 -29.81,3.68 -36.65,-6.92 -12.51,-28.05 219.72,-226.71 340.8,-536.89 349.34,-850.97 -16.85,41.88 -33.71,83.76 -51.45,125.28 -45.27,343.38 -242.69,660.18 -528.72,855.02" /><path
         id="path32"
         style="fill:#e0f2c1;fill-opacity:1;fill-rule:nonzero;stroke:none"
         d="m 1239.26,3326.11 c 334.77,266.53 841.19,278.31 1196.64,44.24 46.15,-30.62 101.58,-56.97 125.72,-110.27 -391.59,241.14 -908.39,269.55 -1317.94,56.02 -1.11,2.5 -3.32,7.51 -4.42,10.01" /><path
         id="path34"
         style="fill:#add5f1;fill-opacity:1;fill-rule:nonzero;stroke:none"
         d="m 851.934,3402.22 c 52.484,36.8 108.277,68.97 167.236,94.14 7.73,-2.65 35.99,2.87 20.02,-9.34 -231.639,-207.88 -386.069,-499.65 -419.854,-809.47 -17.004,-41.73 -33.715,-83.62 -50.789,-125.28 -4.27,299.21 106.582,593.94 291.191,827.64 11.407,9.87 2.133,16.49 -7.804,22.31" /><path
         id="path36"
         style="fill:#fefffe;fill-opacity:1;fill-rule:nonzero;stroke:none"
         d="m 1243.68,3316.1 c 409.55,213.53 926.35,185.12 1317.94,-56.02 73.46,-50.57 146.26,-102.46 212.87,-162.01 41.08,-44.9 84.87,-87.22 125.14,-132.93 32.75,-50.13 70.58,-96.73 103.64,-146.7 23.62,-44.76 48.72,-88.7 72.72,-133.23 17.74,-41.52 34.6,-83.4 51.45,-125.28 11.56,-40.34 23.56,-80.61 37.61,-120.2 30.18,-132.06 40.86,-267.42 38.8,-402.71 -0.52,-12.37 -0.52,-24.81 -0.45,-37.25 -6.84,-43.94 -11.7,-88.18 -17.59,-132.27 -11.56,52.11 -10.16,105.92 -19.87,158.18 -3.98,61.17 -20.46,120.5 -36.81,179.31 -8.61,33.71 -20.17,66.62 -31.43,99.52 -12.43,35.62 -26.13,71.03 -44.09,104.3 -17.29,34.37 -33.05,69.49 -51.97,102.98 -24.28,40.26 -49.09,80.52 -77.58,117.99 -26.42,36.22 -54.25,71.47 -84.72,104.38 -29.52,32.82 -60.43,64.55 -93.55,93.7 -35.04,31.35 -69.56,63.89 -109.24,89.36 -77.58,58.44 -161.57,108.94 -251.51,146.11 -105.26,47.77 -217.08,84.94 -332.79,94.37 -117.62,22.66 -239.88,28.11 -358.17,7.94 -124.76,-10.3 -247.84,-43.72 -361.86,-95.1 -83.54,-33.56 -167.31,-73.83 -236.57,-131.83 -37.91,-25.25 -77.07,-49.68 -109.822,-81.7 -28.488,-27.97 -60.433,-52.26 -88.551,-80.68 -30.105,-33.78 -61.976,-66.1 -88.55,-102.75 -28.856,-34.75 -53.809,-72.58 -78.614,-110.27 -20.093,-30.62 -40.043,-61.53 -55.277,-94.95 -17.742,-33.93 -34.672,-68.31 -49.316,-103.72 -14.649,-33.19 -28.047,-66.98 -39.309,-101.57 -17.887,-55.65 -33.492,-112.77 -42.84,-170.55 -6.109,-38.72 -11.336,-77.73 -14.058,-116.89 -5.446,-38.06 -3.754,-76.99 -11.411,-114.83 -3.238,12.44 -7.211,24.59 -11.41,36.66 -5.222,46.3 0.813,95.25 -14.719,139.78 0.809,49.24 0.442,98.41 3.313,147.58 4.785,44.02 9.199,88.04 13.762,132.13 15.386,79.5 36.511,157.74 59.699,235.32 17.074,41.66 33.785,83.55 50.789,125.28 25.469,46.15 50.125,92.82 74.269,139.63 25.688,33.57 49.758,68.39 72.797,103.72 38.719,51.6 85.828,95.98 124.543,147.51 46.965,33.41 87.227,75 130.875,112.32 72.14,47.92 142.36,99.89 221.86,135.37" /><path
         id="path38"
         style="fill:#add5f2;fill-opacity:1;fill-rule:nonzero;stroke:none"
         d="m 2778.1,3410.9 c -24.14,21.13 -17.3,31.73 12.51,28.05 47.77,-28.78 93.93,-60.21 139.12,-92.97 -17.59,-23.04 9.86,-45.19 19.07,-65.73 165.68,-243.86 243.41,-548.82 216.25,-840.52 -14.05,39.59 -26.05,79.86 -37.61,120.2 -8.54,314.08 -129.62,624.26 -349.34,850.97" /><path
         id="path40"
         style="fill:#a3cefa;fill-opacity:1;fill-rule:nonzero;stroke:none"
         d="m 625.148,3232.55 c 72.801,60.14 146.258,119.98 226.786,169.67 9.937,-5.82 19.211,-12.44 7.804,-22.31 -184.609,-233.7 -295.461,-528.43 -291.191,-827.64 -23.188,-77.58 -44.313,-155.82 -59.699,-235.32 -44.899,299.95 -8.02,614.03 130.582,885.87 9.054,17.73 12.07,35.18 -14.282,29.73" /><path
         id="path42"
         style="fill:#a3cdf9;fill-opacity:1;fill-rule:nonzero;stroke:none"
         d="m 2948.8,3280.25 c -9.21,20.54 -36.66,42.69 -19.07,65.73 87.45,-60.94 168.2,-131.61 243.35,-207.2 -26.58,0.66 -7.95,-30.33 -3.83,-42.33 68.31,-166.94 91.27,-348.46 98.41,-527.47 2.36,-180.34 -64.99,-351.99 -63.81,-531.96 2.06,135.29 -8.62,270.65 -38.8,402.71 27.16,291.7 -50.57,596.66 -216.25,840.52" /><path
         id="path44"
         style="fill:#a3c3f4;fill-opacity:1;fill-rule:nonzero;stroke:none"
         d="m 484.633,3092.7 c 46.004,47.4 91.64,95.39 140.515,139.85 26.352,5.45 23.336,-12 14.282,-29.73 -138.602,-271.84 -175.481,-585.92 -130.582,-885.87 -4.563,-44.09 -8.977,-88.11 -13.762,-132.13 -97.309,278.97 -85.238,593.87 8.98,873.14 17.149,35.84 5.813,43.94 -19.433,34.74" /><path
         id="path46"
         style="fill:#ffff87;fill-opacity:1;fill-rule:nonzero;stroke:none"
         d="m 1694.08,3165.64 c 118.29,20.17 240.55,14.72 358.17,-7.94 81.93,-34.01 177.32,-47.93 251.01,-103.72 206.83,-136.47 342.35,-375.62 351.84,-622.79 -6.47,-20.17 -23.7,9.86 -35.62,12.8 -123.3,273.83 -396.02,471.68 -696.55,494.94 -47.48,4.57 -96.8,12 -143.91,0.45 -276.39,-20.1 -531.45,-190.28 -666.29,-430.91 -17.67,-1.47 -50.87,-17.74 -23.12,31.07 50.79,282.87 269.63,543.37 555.59,605.35 18.33,1.4 37.69,5.37 48.88,20.75" /><path
         id="path48"
         style="fill:#ffff95;fill-opacity:1;fill-rule:nonzero;stroke:none"
         d="m 1332.22,3070.54 c 114.02,51.38 237.1,84.8 361.86,95.1 -11.19,-15.38 -30.55,-19.35 -48.88,-20.75 -285.96,-61.98 -504.8,-322.48 -555.59,-605.35 -27.75,-48.81 5.45,-32.54 23.12,-31.07 -23.56,-50.34 -48,-100.47 -66.91,-152.88 -9.35,-8.54 -25.69,-42.62 -35.78,-19.87 -24.802,274.78 83.18,583.19 322.18,734.82" /><path
         id="path50"
         style="fill:#ffff94;fill-opacity:1;fill-rule:nonzero;stroke:none"
         d="m 2052.25,3157.7 c 115.71,-9.43 227.53,-46.6 332.79,-94.37 40.18,-44.61 105.92,-59.7 140.36,-111.08 153.33,-190.71 226.57,-451.36 174.53,-692.27 -15.24,2.5 -18.4,20.61 -27.9,30.47 -16.78,51.45 -32.68,103.2 -52.55,153.54 11.92,-2.94 29.15,-32.97 35.62,-12.8 -9.49,247.17 -145.01,486.32 -351.84,622.79 -73.69,55.79 -169.08,69.71 -251.01,103.72" /><path
         id="path52"
         style="fill:#a3bff2;fill-opacity:1;fill-rule:nonzero;stroke:none"
         d="m 3169.25,3096.45 c -4.12,12 -22.75,42.99 3.83,42.33 49.1,-51.75 94.58,-107.03 139.19,-162.67 -25.25,-2.07 -13.03,-32.02 -10.89,-49.77 68.01,-307.97 39.75,-641.63 -97.98,-926.57 -0.07,12.44 -0.07,24.88 0.45,37.25 -1.18,179.97 66.17,351.62 63.81,531.96 -7.14,179.01 -30.1,360.53 -98.41,527.47" /><path
         id="path54"
         style="fill:#a3b8ed;fill-opacity:1;fill-rule:nonzero;stroke:none"
         d="m 484.633,3092.7 c 25.246,9.2 36.582,1.1 19.433,-34.74 -94.218,-279.27 -106.289,-594.17 -8.98,-873.14 -2.871,-49.17 -2.504,-98.34 -3.313,-147.58 -125.429,282.58 -152.074,609.03 -83.031,909.94 6.992,18.55 3.387,33.19 -10.82,44.01 27.75,34.82 56.68,68.61 86.711,101.51" /><path
         id="path56"
         style="fill:#fdffa2;fill-opacity:1;fill-rule:nonzero;stroke:none"
         d="m 1095.65,2938.71 c 69.26,58 153.03,98.27 236.57,131.83 -239,-151.63 -346.982,-460.04 -322.18,-734.82 10.09,-22.75 26.43,11.33 35.78,19.87 -17.3,-68.45 -30.99,-137.94 -38.94,-208.16 -45.638,52.41 -39.38,131.61 -53.22,196.61 -26.277,208.01 33.641,418.16 141.99,594.67" /><path
         id="path58"
         style="fill:#feffa0;fill-opacity:1;fill-rule:nonzero;stroke:none"
         d="m 2385.04,3063.33 c 89.94,-37.17 173.93,-87.67 251.51,-146.11 153.91,-247.03 187.85,-573.77 63.23,-839.86 -2.28,1.61 -6.77,4.78 -8.98,6.4 2.13,69.63 -7.95,138.23 -18.77,206.69 9.5,-9.86 12.66,-27.97 27.9,-30.47 52.04,240.91 -21.2,501.56 -174.53,692.27 -34.44,51.38 -100.18,66.47 -140.36,111.08" /><path
         id="path60"
         style="fill:#a4ade6;fill-opacity:1;fill-rule:nonzero;stroke:none"
         d="m 317.324,2879.53 c 25.024,38.5 52.188,75.6 80.598,111.66 14.207,-10.82 17.812,-25.46 10.82,-44.01 -69.043,-300.91 -42.398,-627.36 83.031,-909.94 15.532,-44.53 9.497,-93.48 14.719,-139.78 -168.484,293.1 -213.605,645.32 -176.508,977.58 -3.168,1.1 -9.496,3.39 -12.66,4.49" /><path
         id="path62"
         style="fill:#a4b2e9;fill-opacity:1;fill-rule:nonzero;stroke:none"
         d="m 3301.38,2926.34 c -2.14,17.75 -14.36,47.7 10.89,49.77 39.23,-50.21 75.08,-102.91 109.53,-156.5 -42.62,8.84 -10.38,-50.2 -17.74,-70.95 40.26,-479.48 -162.23,-971.4 -527.99,-1283.35 11.12,39.74 24.36,78.83 37.25,117.99 90.75,72.72 151.85,175.41 215.3,271.17 14.65,16.42 17.96,47.33 41.51,53.22 -17.59,0.88 18.55,-81.93 15.68,-40.19 5.89,44.09 10.75,88.33 17.59,132.27 137.73,284.94 165.99,618.6 97.98,926.57" /><path
         id="path64"
         style="fill:#ffffc3;fill-opacity:1;fill-rule:nonzero;stroke:none"
         d="m 1779.02,2939.38 c 47.11,11.55 96.43,4.12 143.91,-0.45 -48,-1.4 -95.99,-2.94 -143.91,0.45" /><path
         id="path66"
         style="fill:#f3fcad;fill-opacity:1;fill-rule:nonzero;stroke:none"
         d="m 985.828,2857.01 c 32.752,32.02 71.912,56.45 109.822,81.7 -108.349,-176.51 -168.267,-386.66 -141.99,-594.67 13.84,-65 7.582,-144.2 53.22,-196.61 1.17,-41.37 1.03,-82.81 1.32,-124.32 -82.438,104.52 -93.552,248.57 -109.083,376.65 -12.367,157 24.071,314.01 86.711,457.25" /><path
         id="path68"
         style="fill:#ffffff;fill-opacity:1;fill-rule:nonzero;stroke:none"
         d="m 1112.73,2508.47 c 134.84,240.63 389.9,410.81 666.29,430.91 47.92,-3.39 95.91,-1.85 143.91,-0.45 300.53,-23.26 573.25,-221.11 696.55,-494.94 19.87,-50.34 35.77,-102.09 52.55,-153.54 10.82,-68.46 20.9,-137.06 18.77,-206.69 -2.72,-32.1 -3.75,-64.48 -6.85,-96.65 -7.13,-42.4 -15.53,-84.65 -26.49,-126.31 -13.69,-41.81 -31.73,-82 -45.71,-123.73 -25.4,-40.93 -49.18,-82.89 -73.61,-124.4 -34.75,-39.16 -67.72,-79.87 -102.68,-118.8 -49.54,-47.41 -108.21,-83.03 -162.68,-124.03 -79.94,-41 -163.7,-72.29 -250.41,-95.1 -135.88,-23.34 -275.07,-20.83 -408.52,14.65 -87.01,34.52 -174.31,69.26 -251.59,123.22 -43.58,34.96 -85.54,71.98 -125.95,110.55 -39.97,43.87 -75.15,91.86 -108.57,140.89 -21.35,44.38 -46,87.08 -65.88,132.2 -12.07,41.44 -24.58,82.88 -35.03,124.84 -7.37,33.63 -5.6,69.7 -18.63,102.02 -0.29,41.51 -0.15,82.95 -1.32,124.32 7.95,70.22 21.64,139.71 38.94,208.16 18.91,52.41 43.35,102.54 66.91,152.88" /><path
         id="path70"
         style="fill:#f5fdab;fill-opacity:1;fill-rule:nonzero;stroke:none"
         d="m 2636.55,2917.22 c 39.68,-25.47 74.2,-58.01 109.24,-89.36 118.28,-268.97 103.85,-593.94 -45.49,-847.89 -4.05,1.77 -12.3,5.37 -16.35,7.14 3.1,32.17 4.13,64.55 6.85,96.65 2.21,-1.62 6.7,-4.79 8.98,-6.4 124.62,266.09 90.68,592.83 -63.23,839.86" /><path
         id="path72"
         style="fill:#a5a2df;fill-opacity:1;fill-rule:nonzero;stroke:none"
         d="m 317.324,2879.53 c 3.164,-1.1 9.492,-3.39 12.66,-4.49 -37.097,-332.26 8.024,-684.48 176.508,-977.58 4.199,-12.07 8.172,-24.22 11.41,-36.66 -8.023,-21.35 22.379,1.11 27.09,-12.73 70.957,-121.38 160.535,-230.98 259.098,-330.94 12.808,-31.73 24.879,-63.82 36.508,-96.06 -394.317,311.73 -608.809,831.18 -575.758,1330.46 -10.156,11.99 -20.317,-0.74 -29.442,-6.85 23.407,47.18 52.555,91.27 81.926,134.85" /><path
         id="path74"
         style="fill:#e9f6b7;fill-opacity:1;fill-rule:nonzero;stroke:none"
         d="m 897.277,2776.33 c 28.118,28.42 60.063,52.71 88.551,80.68 -62.64,-143.24 -99.078,-300.25 -86.711,-457.25 15.531,-128.08 26.645,-272.13 109.083,-376.65 13.03,-32.32 11.26,-68.39 18.63,-102.02 -8.32,-8.62 -15.24,-2.36 -20.62,5.44 -157.292,249.46 -199.765,568.47 -108.933,849.8" /><path
         id="path76"
         style="fill:#ebf7b5;fill-opacity:1;fill-rule:nonzero;stroke:none"
         d="m 2745.79,2827.86 c 33.12,-29.15 64.03,-60.88 93.55,-93.7 52.63,-206.11 48.73,-427.45 -30.25,-626.41 -40.34,-85.89 -71.48,-191.01 -151.63,-246.95 10.96,41.66 19.36,83.91 26.49,126.31 4.05,-1.77 12.3,-5.37 16.35,-7.14 149.34,253.95 163.77,578.92 45.49,847.89" /><path
         id="path78"
         style="fill:#a5a4e0;fill-opacity:1;fill-rule:nonzero;stroke:none"
         d="m 3404.06,2748.66 c 7.36,20.75 -24.88,79.79 17.74,70.95 25.61,-42.98 49.98,-86.78 73.53,-130.95 -15.68,-9.27 -41.88,-15.3 -20.9,-46.07 1.1,-488.61 -238.2,-979.57 -634.57,-1266.2 10.6,30.18 22.74,59.84 36.21,88.92 365.76,311.95 568.25,803.87 527.99,1283.35" /><path
         id="path80"
         style="fill:#def0c1;fill-opacity:1;fill-rule:nonzero;stroke:none"
         d="m 808.727,2673.58 c 26.574,36.65 58.445,68.97 88.55,102.75 -90.832,-281.33 -48.359,-600.34 108.933,-849.8 5.38,-7.8 12.3,-14.06 20.62,-5.44 10.45,-41.96 22.96,-83.4 35.03,-124.84 -80.008,52.92 -116.372,154.65 -163.11,235.61 -96.648,198.97 -110.707,424.5 -90.023,641.72" /><path
         id="path82"
         style="fill:#a695d7;fill-opacity:1;fill-rule:nonzero;stroke:none"
         d="m 235.398,2744.68 c 9.125,6.11 19.286,18.84 29.442,6.85 -33.051,-499.28 181.441,-1018.73 575.758,-1330.46 15.164,-31.5 29.738,-63.45 44.535,-95.25 -382.172,273.89 -633.32,719.59 -674.688,1187.59 -15.238,41.07 19.504,107.91 -27.308,133.3 15.383,33.71 32.461,66.69 52.261,97.97" /><path
         id="path84"
         style="fill:#e0f1c0;fill-opacity:1;fill-rule:nonzero;stroke:none"
         d="m 2809.09,2107.75 c 78.98,198.96 82.88,420.3 30.25,626.41 30.47,-32.91 58.3,-68.16 84.72,-104.38 21.57,-225.31 -15.23,-458.58 -126.31,-657.39 -51.96,-84.35 -104.45,-178.28 -186,-235.32 13.98,41.73 32.02,81.92 45.71,123.73 80.15,55.94 111.29,161.06 151.63,246.95" /><path
         id="path86"
         style="fill:#a695d7;fill-opacity:1;fill-rule:nonzero;stroke:none"
         d="m 3474.43,2642.59 c -20.98,30.77 5.22,36.8 20.9,46.07 25.99,-49.31 47.7,-100.84 68.38,-152.58 -26.5,-22.01 -20.17,-59.33 -25.61,-89.95 -13.25,-134.78 -70.37,-260.28 -87.52,-393.8 -2.72,10.23 -8.17,30.69 -10.9,40.92 -3.31,-43.13 -0.44,-86.85 -6.4,-129.84 -3.68,17.37 6.92,65.36 -23.19,59.4 -131.46,-298.26 -343.89,-569.58 -622.27,-741.96 14.79,33.12 32.6,64.92 52.04,95.54 396.37,286.63 635.67,777.59 634.57,1266.2" /><path
         id="path88"
         style="fill:#d3eacc;fill-opacity:1;fill-rule:nonzero;stroke:none"
         d="m 730.113,2563.31 c 24.805,37.69 49.758,75.52 78.614,110.27 -20.684,-217.22 -6.625,-442.75 90.023,-641.72 46.738,-80.96 83.102,-182.69 163.11,-235.61 19.88,-45.12 44.53,-87.82 65.88,-132.2 -260.861,204.04 -389.896,549.48 -384.595,875.34 1.101,10.31 -6.997,17.07 -13.032,23.92" /><path
         id="path90"
         style="fill:#a788cf;fill-opacity:1;fill-rule:nonzero;stroke:none"
         d="m 133.523,2534.16 c 14.942,38.21 31.286,75.89 49.614,112.55 46.812,-25.39 12.07,-92.23 27.308,-133.3 41.368,-468 292.516,-913.7 674.688,-1187.59 19.285,-29.74 37.316,-60.28 56.383,-90.24 -234.661,145.01 -427.661,351.99 -565.969,589.89 -43.281,63.3 -62.125,139.71 -109.16,200.51 -11.262,16.85 15.824,72.94 -17.668,71.25 -41.293,121.97 -73.903,247.54 -87.297,375.77 -4.563,22.96 0.367,54.46 -27.899,61.16" /><path
         id="path92"
         style="fill:#d5ebcb;fill-opacity:1;fill-rule:nonzero;stroke:none"
         d="m 2924.06,2629.78 c 28.49,-37.47 53.3,-77.73 77.58,-117.99 -6.25,-3.17 -12.21,-6.77 -17.88,-10.75 2.87,-341.98 -163.04,-692.43 -445.62,-888.37 24.43,41.51 48.21,83.47 73.61,124.4 81.55,57.04 134.04,150.97 186,235.32 111.08,198.81 147.88,432.08 126.31,657.39" /><path
         id="path94"
         style="fill:#c7e4d8;fill-opacity:1;fill-rule:nonzero;stroke:none"
         d="m 730.113,2563.31 c 6.035,-6.85 14.133,-13.61 13.032,-23.92 -5.301,-325.86 123.734,-671.3 384.595,-875.34 33.42,-49.03 68.6,-97.02 108.57,-140.89 -285.447,182.4 -492.283,489.86 -532.767,828.31 -12.516,37.02 5.738,89.66 -28.707,116.89 15.234,33.42 35.184,64.33 55.277,94.95" /><path
         id="path96"
         style="fill:#a97cc6;fill-opacity:1;fill-rule:nonzero;stroke:none"
         d="m 133.523,2534.16 c 28.266,-6.7 23.336,-38.2 27.899,-61.16 13.394,-128.23 46.004,-253.8 87.297,-375.77 1.179,-9.05 2.285,-18.18 3.312,-27.24 -4.121,-37.46 -8.832,-75 -9.492,-112.69 l -6.48,1.62 c -32.239,130.51 -95.395,251.96 -113.43,386.81 -7.137,14.2 -4.711,72.13 -35.8438,55.57 11.4062,45.64 30.2498,88.92 46.7378,132.86" /><path
         id="path98"
         style="fill:#a983cb;fill-opacity:1;fill-rule:nonzero;stroke:none"
         d="m 3538.1,2446.13 c 5.44,30.62 -0.89,67.94 25.61,89.95 26.87,-62.87 46.67,-128.45 66.91,-193.59 -7.36,1.84 -14.72,3.39 -22.15,4.56 -28.34,-145.37 -81.12,-284.42 -139.78,-419.93 -5.82,-56.38 4.41,-114.16 -6.48,-170.03 -3.76,98.41 -0.37,197.19 -11.63,295.24 17.15,133.52 74.27,259.02 87.52,393.8" /><path
         id="path100"
         style="fill:#c9e5d6;fill-opacity:1;fill-rule:nonzero;stroke:none"
         d="m 2983.76,2501.04 c 5.67,3.98 11.63,7.58 17.88,10.75 18.92,-33.49 34.68,-68.61 51.97,-102.98 -3.82,-1.84 -11.56,-5.6 -15.38,-7.51 -16.42,-99.66 -32.68,-201.53 -71.99,-295.6 -14.35,-36.37 -31.8,-72.29 -31.43,-112.48 -11.26,60.8 -14.06,-2.13 -20.31,-32.83 -27.61,-12.44 -36.44,-44.01 -53.15,-66.76 -105.11,-165.18 -248.06,-314.45 -425.89,-399.76 34.96,38.93 67.93,79.64 102.68,118.8 282.58,195.94 448.49,546.39 445.62,888.37" /><path
         id="path102"
         style="fill:#bcdee3;fill-opacity:1;fill-rule:nonzero;stroke:none"
         d="m 625.52,2364.64 c 14.644,35.41 31.574,69.79 49.316,103.72 34.445,-27.23 16.191,-79.87 28.707,-116.89 40.484,-338.45 247.32,-645.91 532.767,-828.31 40.41,-38.57 82.37,-75.59 125.95,-110.55 -223.77,91.27 -412.944,264.32 -540.283,469.17 -7.215,9.13 -19.067,11.85 -29.075,16.78 -9.422,38.57 -10.894,78.39 -13.765,117.77 -30.77,7.81 -9.199,-42.03 -17.813,-60.28 -3.605,48.88 -29.371,91.49 -45.195,136.84 -35.332,85.68 -53.953,176.65 -70.59,267.41 -5.004,1.11 -15.016,3.31 -20.019,4.34" /><path
         id="path104"
         style="fill:#ac6cbb;fill-opacity:1;fill-rule:nonzero;stroke:none"
         d="m 86.7852,2401.3 c 31.1328,16.56 28.7068,-41.37 35.8438,-55.57 18.035,-134.85 81.191,-256.3 113.43,-386.81 3.168,-74.35 -8.391,-150.09 4.05,-223.92 4.711,-111.07 30.84,-219.49 56.457,-327.18 -3.386,-17 18.914,-80.53 -14.281,-50.64 -103.418,121.16 -223.2498,242.68 -273.23031,396.74 -2.50391,70.52 -1.47266,141.03 -1.98828,211.48 9.78909,147.58 34.66799,294.87 79.71879,435.9" /><path
         id="path106"
         style="fill:#bddee2;fill-opacity:1;fill-rule:nonzero;stroke:none"
         d="m 3038.23,2401.3 c 3.82,1.91 11.56,5.67 15.38,7.51 17.96,-33.27 31.66,-68.68 44.09,-104.3 -18.1,2.87 -23.55,-10.23 -25.1,-25.69 -20.83,-127.12 -81.78,-241.8 -130.72,-358.77 -2.88,24.44 -4.79,48.74 -7.07,73.17 -0.37,40.19 17.08,76.11 31.43,112.48 39.31,94.07 55.57,195.94 71.99,295.6" /><path
         id="path108"
         style="fill:#b0d7ef;fill-opacity:1;fill-rule:nonzero;stroke:none"
         d="m 625.52,2364.64 c 5.003,-1.03 15.015,-3.23 20.019,-4.34 16.637,-90.76 35.258,-181.73 70.59,-267.41 15.824,-45.35 41.59,-87.96 45.195,-136.84 -3.386,-51.3 -2.797,-102.83 -4.562,-154.28 -2.797,154.79 -116.227,277.43 -137.797,429.2 -4.195,15.9 -11.039,41.89 -32.754,32.1 11.262,34.59 24.66,68.38 39.309,101.57" /><path
         id="path110"
         style="fill:#ad6ebc;fill-opacity:1;fill-rule:nonzero;stroke:none"
         d="m 3608.47,2347.05 c 7.43,-1.17 14.79,-2.72 22.15,-4.56 64.41,-233.85 85.9,-481.32 48.88,-721.58 -25.62,-96.72 -109.53,-165.84 -169.37,-243.42 -47.18,-52.04 -92.75,-108.94 -151.86,-147.65 -3.16,3.82 -9.42,11.55 -12.58,15.45 68.82,162.53 97.16,337.5 116.52,511.8 10.89,55.87 0.66,113.65 6.48,170.03 58.66,135.51 111.44,274.56 139.78,419.93" /><path
         id="path112"
         style="fill:#b0d7ee;fill-opacity:1;fill-rule:nonzero;stroke:none"
         d="m 3072.6,2278.82 c 1.55,15.46 7,28.56 25.1,25.69 11.26,-32.9 22.82,-65.81 31.43,-99.52 -22.15,-10.53 -25.98,-37.91 -34.89,-57.78 -36.43,-108.42 -84.86,-213.32 -148.46,-308.49 -0.81,27.23 -1.25,54.25 -3.9,81.33 48.94,116.97 109.89,231.65 130.72,358.77" /><path
         id="path114"
         style="fill:#a4cef9;fill-opacity:1;fill-rule:nonzero;stroke:none"
         d="m 586.211,2263.07 c 21.715,9.79 28.559,-16.2 32.754,-32.1 21.57,-151.77 135,-274.41 137.797,-429.2 0,-13.18 0,-39.46 0,-52.63 -72.137,94.36 -129.403,201.83 -176.145,311.5 -6.035,18.26 -16.195,33.86 -37.246,31.88 9.348,57.78 24.953,114.9 42.84,170.55" /><path
         id="path116"
         style="fill:#a4cef9;fill-opacity:1;fill-rule:nonzero;stroke:none"
         d="m 3094.24,2147.21 c 8.91,19.87 12.74,47.25 34.89,57.78 16.35,-58.81 32.83,-118.14 36.81,-179.31 -5.38,-0.88 -16.12,-2.72 -21.49,-3.68 -61.47,-111 -113.58,-234.14 -208.17,-321.88 -1.17,46.44 5.23,92.45 9.5,138.6 63.6,95.17 112.03,200.07 148.46,308.49" /><path
         id="path118"
         style="fill:#ceb8e2;fill-opacity:1;fill-rule:nonzero;stroke:none"
         d="m 248.719,2097.23 c 33.492,1.69 6.406,-54.4 17.668,-71.25 -1.106,-10.97 -2.137,-21.94 -3.164,-32.98 -3.684,25.69 -7.364,51.38 -11.192,76.99 -1.027,9.06 -2.133,18.19 -3.312,27.24" /><path
         id="path120"
         style="fill:#a3c0f2;fill-opacity:1;fill-rule:nonzero;stroke:none"
         d="m 543.371,2092.52 c 21.051,1.98 31.211,-13.62 37.246,-31.88 46.742,-109.67 104.008,-217.14 176.145,-311.5 6.769,-35.92 10.89,-72.36 16.929,-108.43 -109.601,87.3 -153.328,234.37 -244.378,334.92 2.722,39.16 7.949,78.17 14.058,116.89" /><path
         id="path122"
         style="fill:#fefefe;fill-opacity:1;fill-rule:nonzero;stroke:none"
         d="m 3439.68,2093.25 c 2.73,-10.23 8.18,-30.69 10.9,-40.92 11.26,-98.05 7.87,-196.83 11.63,-295.24 -19.36,-174.3 -47.7,-349.27 -116.52,-511.8 -40.05,-87.44 -78.32,-176.21 -131.54,-256.739 -43.5,-64.188 -86.56,-129.184 -139.19,-186.375 -40.71,-50.715 -90.61,-92.821 -134.04,-141.031 -35.26,-32.903 -73.09,-62.715 -110.78,-92.747 -48.87,-37.98 -100.62,-71.988 -153.25,-104.597 -127.64,-78.688 -268.45,-132.344 -411.62,-175.184 -288.32,-71.328 -594.6,-73.535 -879.68,14.133 -150.53,46.961 -293.7,115.711 -426.777,200.063 -45.122,32.976 -91.422,64.335 -133.965,100.55 -31.211,27.309 -62.274,54.762 -94.293,81.039 -40.188,40.559 -78.024,83.325 -116.371,125.575 -32.243,41.222 -63.454,83.253 -95.399,124.621 -34.961,59.324 -74.785,115.932 -104.449,178.352 -49.758,93.85 -83.617,194.54 -117.77,294.87 -25.617,107.69 -51.746,216.11 -56.457,327.18 3.606,74.05 3.457,148.18 2.43,222.3 0.66,37.69 5.371,75.23 9.492,112.69 3.828,-25.61 7.508,-51.3 11.192,-76.99 3.382,-56.75 8.39,-113.65 20.754,-169.3 C 335.43,1542.45 461.961,1272.82 653.711,1060.02 768.465,920.391 914.5,806.52 1072.61,719.809 1514.4,466.23 2085.67,444.957 2541.23,676.16 c 175.85,78.832 332.71,198.52 463.43,339.55 186.6,189.91 317.62,432.96 384.6,690.22 16.79,63.37 28.12,128.08 36.59,193 2.35,21.64 4.63,42.99 7.43,64.48 5.96,42.99 3.09,86.71 6.4,129.84" /><path
         id="path124"
         style="fill:#a87bc6;fill-opacity:1;fill-rule:nonzero;stroke:none"
         d="m 266.387,2025.98 c 47.035,-60.8 65.879,-137.21 109.16,-200.51 138.308,-237.9 331.308,-444.88 565.969,-589.89 24.07,-34.53 53.144,-65.29 76.474,-100.48 -283.459,151.42 -523.717,384.09 -687.345,660.56 -11.778,16.56 -47.844,82.07 -46.668,28.04 -12.364,55.65 -17.372,112.55 -20.754,169.3 1.027,11.04 2.058,22.01 3.164,32.98" /><path
         id="path126"
         style="fill:#fefeff;fill-opacity:1;fill-rule:nonzero;stroke:none"
         d="m 2914.5,1960.39 c 6.25,30.7 9.05,93.63 20.31,32.83 2.28,-24.43 4.19,-48.73 7.07,-73.17 2.65,-27.08 3.09,-54.1 3.9,-81.33 -4.27,-46.15 -10.67,-92.16 -9.5,-138.6 -6.99,-39.09 -16.34,-77.66 -22.96,-116.82 -12.89,-39.16 -26.13,-78.25 -37.25,-117.99 -13.47,-29.08 -25.61,-58.74 -36.21,-88.92 -19.44,-30.62 -37.25,-62.42 -52.04,-95.54 -20.25,-28.78 -40.19,-57.86 -59.26,-87.45 -27.16,-31.65 -56.16,-61.9 -79.57,-96.57 -189.61,-194.4 -447.02,-319.826 -718.26,-341.396 -55.28,3.093 -110.63,2.871 -165.91,0.812 -287,21.567 -557.21,164.07 -746.83,378.854 -23.33,35.19 -52.404,65.95 -76.474,100.48 -19.067,29.96 -37.098,60.5 -56.383,90.24 -14.797,31.8 -29.371,63.75 -44.535,95.25 -11.629,32.24 -23.7,64.33 -36.508,96.06 -8.688,41.51 -18.477,82.88 -30.399,123.58 -6.039,36.07 -10.16,72.51 -16.929,108.43 0,13.17 0,39.45 0,52.63 1.765,51.45 1.176,102.98 4.562,154.28 8.614,18.25 -12.957,68.09 17.813,60.28 2.871,-39.38 4.343,-79.2 13.765,-117.77 9.125,-53 20.461,-106.14 42.618,-155.46 22.156,-77.73 62.789,-148.98 103.859,-218.17 34.008,-52.85 70.441,-105.11 116.601,-148.17 53.8,-73.1 130.87,-124.33 203.81,-176.51 324.39,-217.734 773.18,-237.535 1111.26,-39.24 70.66,33.64 133.23,82.15 191.82,133.53 52.85,50.64 108.06,100.25 147.43,162.75 50.35,58.66 86.06,127.85 118.66,197.48 21.2,45.49 38.79,92.89 53.29,140.96 11.41,54.54 32.17,108.35 32.25,164.66" /><path
         id="path128"
         style="fill:#a4c0f2;fill-opacity:1;fill-rule:nonzero;stroke:none"
         d="m 3144.45,2022 c 5.37,0.96 16.11,2.8 21.49,3.68 9.71,-52.26 8.31,-106.07 19.87,-158.18 2.87,-41.74 -33.27,41.07 -15.68,40.19 -23.55,-5.89 -26.86,-36.8 -41.51,-53.22 -63.45,-95.76 -124.55,-198.45 -215.3,-271.17 6.62,39.16 15.97,77.73 22.96,116.82 94.59,87.74 146.7,210.88 208.17,321.88" /><path
         id="path130"
         style="fill:#a788cf;fill-opacity:1;fill-rule:nonzero;stroke:none"
         d="m 3410.09,2022.81 c 30.11,5.96 19.51,-42.03 23.19,-59.4 -2.8,-21.49 -5.08,-42.84 -7.43,-64.48 -10.46,12.29 -15.61,-3.75 -21.57,-11.19 -158.77,-284.79 -386.22,-539.32 -675.72,-694.34 19.07,29.59 39.01,58.67 59.26,87.45 278.38,172.38 490.81,443.7 622.27,741.96" /><path
         id="path132"
         style="fill:#a4b2e9;fill-opacity:1;fill-rule:nonzero;stroke:none"
         d="m 529.313,1975.63 c 91.05,-100.55 134.777,-247.62 244.378,-334.92 11.922,-40.7 21.711,-82.07 30.399,-123.58 -98.563,99.96 -188.141,209.56 -259.098,330.94 -4.711,13.84 -35.113,-8.62 -27.09,12.73 7.657,37.84 5.965,76.77 11.411,114.83" /><path
         id="path134"
         style="fill:#d0a9d7;fill-opacity:1;fill-rule:nonzero;stroke:none"
         d="m 0,1965.25 7.06641,0.15 c 0.51562,-70.45 -0.51563,-140.96 1.98828,-211.48 -0.44141,-3.83 -1.32422,-11.63 -1.76563,-15.53 L 0,1735.74 0,1965.25" /><path
         id="path136"
         style="fill:#dcc3e4;fill-opacity:1;fill-rule:nonzero;stroke:none"
         d="m 236.059,1958.92 6.48,-1.62 c 1.027,-74.12 1.176,-148.25 -2.43,-222.3 -12.441,73.83 -0.882,149.57 -4.05,223.92" /><path
         id="path138"
         style="fill:#bddee2;fill-opacity:1;fill-rule:nonzero;stroke:none"
         d="m 2861.35,1893.63 c 16.71,22.75 25.54,54.32 53.15,66.76 -0.08,-56.31 -20.84,-110.12 -32.25,-164.66 -18.69,16.79 -33.86,-13.47 -46.37,-23.85 -143.68,-184.68 -343.6,-323.28 -563.1,-402.04 54.47,41 113.14,76.62 162.68,124.03 177.83,85.31 320.78,234.58 425.89,399.76" /><path
         id="path140"
         style="fill:#a87bc6;fill-opacity:1;fill-rule:nonzero;stroke:none"
         d="m 3404.28,1887.74 c 5.96,7.44 11.11,23.48 21.57,11.19 -8.47,-64.92 -19.8,-129.63 -36.59,-193 0.15,13.54 -5.3,34.6 -19.43,17.81 -180.78,-266.31 -427.22,-491.77 -720.84,-626.91 23.41,34.67 52.41,64.92 79.57,96.57 289.5,155.02 516.95,409.55 675.72,694.34" /><path
         id="path142"
         style="fill:#b0d7ef;fill-opacity:1;fill-rule:nonzero;stroke:none"
         d="m 792.902,1898.56 c 10.008,-4.93 21.86,-7.65 29.075,-16.78 127.339,-204.85 316.513,-377.9 540.283,-469.17 77.28,-53.96 164.58,-88.7 251.59,-123.22 -147.66,18.91 -287.44,85.75 -415.81,159.21 -140.3,77.44 -248.427,197.49 -358.177,310.7 -1.105,-4.05 -3.312,-12.15 -4.343,-16.2 -22.157,49.32 -33.493,102.46 -42.618,155.46" /><path
         id="path144"
         style="fill:#ac6cbb;fill-opacity:1;fill-rule:nonzero;stroke:none"
         d="m 283.977,1823.7 c -1.176,54.03 34.89,-11.48 46.668,-28.04 163.628,-276.47 403.886,-509.14 687.345,-660.56 189.62,-214.784 459.83,-357.287 746.83,-378.854 54.83,-6.258 111.14,-10.234 165.91,-0.812 271.24,21.57 528.65,146.996 718.26,341.396 293.62,135.14 540.06,360.6 720.84,626.91 14.13,16.79 19.58,-4.27 19.43,-17.81 -66.98,-257.26 -198,-500.31 -384.6,-690.22 -33.49,-6.26 -54.39,-34.374 -75.81,-58.37 -642.52,-376.574 -1485.11,-371.496 -2126.526,7.066 -55.648,22.008 -92.011,80.974 -148.613,95.614 -191.75,212.8 -318.281,482.43 -369.734,763.68" /><path
         id="path146"
         style="fill:#b0d7ef;fill-opacity:1;fill-rule:nonzero;stroke:none"
         d="m 2835.88,1771.88 c 12.51,10.38 27.68,40.64 46.37,23.85 -14.5,-48.07 -32.09,-95.47 -53.29,-140.96 -11.92,7.95 -24.95,12.74 -33.42,-4.56 -207.13,-203.38 -481.09,-352.95 -773.17,-375.47 86.71,22.81 170.47,54.1 250.41,95.1 219.5,78.76 419.42,217.36 563.1,402.04" /><path
         id="path148"
         style="fill:#a4cef9;fill-opacity:1;fill-rule:nonzero;stroke:none"
         d="m 839.863,1759.3 c 109.75,-113.21 217.877,-233.26 358.177,-310.7 128.37,-73.46 268.15,-140.3 415.81,-159.21 133.45,-35.48 272.64,-37.99 408.52,-14.65 292.08,22.52 566.04,172.09 773.17,375.47 8.47,17.3 21.5,12.51 33.42,4.56 -32.6,-69.63 -68.31,-138.82 -118.66,-197.48 -109.74,-43.51 -204.69,-122.64 -317.98,-161.94 -436.2,-182.47 -958.74,-115.79 -1340.1,161.79 -38.13,15.97 -68.232,81.26 -112.841,67.79 -41.07,69.19 -81.703,140.44 -103.859,218.17 1.031,4.05 3.238,12.15 4.343,16.2" /><path
         id="path150"
         style="fill:#bc7bbc;fill-opacity:1;fill-rule:nonzero;stroke:none"
         d="M 9.05469,1753.92 C 59.0352,1599.86 178.867,1478.34 282.285,1357.18 c 33.195,-29.89 10.895,33.64 14.281,50.64 34.153,-100.33 68.012,-201.02 117.77,-294.87 -0.66,-6.04 -1.984,-17.96 -2.723,-23.93 -144.418,101.07 -262.117,236.73 -368.4802,375.92 -18.2539,90.02 -33.0469,181.59 -35.84374,273.45 0.44141,3.9 1.32422,11.7 1.76563,15.53" /><path
         id="path152"
         style="fill:#ffffff;fill-opacity:1;fill-rule:nonzero;stroke:none"
         d="m 0,1735.74 7.28906,2.65 c 2.79684,-91.86 17.58984,-183.43 35.84374,-273.45 11.7031,-62.86 26.7227,-125.58 50.2735,-185.12 9.9377,-43.07 26.6487,-84.43 45.1247,-124.48 17.442,-45.12 35.11,-90.46 58.074,-133.15 15.825,-32.608 33.493,-64.335 51.895,-95.545 19.875,-35.844 39.676,-72.207 66.469,-103.418 42.617,-67.204 90.832,-131.168 144.859,-189.614 40.113,-51.746 87.961,-96.941 135.586,-141.765 40.481,-35.481 80.082,-72.211 123.07,-104.821 C 779.43,338.375 844.867,295.238 912.586,256.523 1164.11,101.359 1456.77,25.6875 1748.84,0 L 0,0 0,1735.74" /><path
         id="path154"
         style="fill:#c07ebd;fill-opacity:1;fill-rule:nonzero;stroke:none"
         d="m 3510.13,1377.49 c 59.84,77.58 143.75,146.7 169.37,243.42 -4.57,-106.14 -34.3,-209.56 -63.67,-310.99 -110.19,-130.65 -239.08,-245.78 -380.04,-342.643 -21.57,-11.336 -29.52,0.293 -21.64,21.274 53.22,80.529 91.49,169.299 131.54,256.739 3.16,-3.9 9.42,-11.63 12.58,-15.45 59.11,38.71 104.68,95.61 151.86,147.65" /><path
         id="path156"
         style="fill:#a3c1f3;fill-opacity:1;fill-rule:nonzero;stroke:none"
         d="m 939.379,1524.93 c 44.609,13.47 74.711,-51.82 112.841,-67.79 381.36,-277.58 903.9,-344.26 1340.1,-161.79 113.29,39.3 208.24,118.43 317.98,161.94 -39.37,-62.5 -94.58,-112.11 -147.43,-162.75 11.34,25.61 -3.09,27.82 -23.33,15.53 -442.24,-230.76 -1005.04,-215.52 -1428.06,51.6 -17.16,6.55 -36.37,25.61 -55.5,15.09 -46.16,43.06 -82.593,95.32 -116.601,148.17" /><path
         id="path158"
         style="fill:#cb88bd;fill-opacity:1;fill-rule:nonzero;stroke:none"
         d="M 43.1328,1464.94 C 149.496,1325.75 267.195,1190.09 411.613,1089.02 c 0.739,5.97 2.063,17.89 2.723,23.93 29.664,-62.42 69.488,-119.028 104.449,-178.352 -9.125,-3.684 -19.43,-11.043 -28.117,-2.137 -146.551,98.419 -274.926,220.749 -397.2617,347.359 -23.5508,59.54 -38.5704,122.26 -50.2735,185.12" /><path
         id="path160"
         style="fill:#a4b4eb;fill-opacity:1;fill-rule:nonzero;stroke:none"
         d="m 1055.98,1376.76 c 19.13,10.52 38.34,-8.54 55.5,-15.09 423.02,-267.12 985.82,-282.36 1428.06,-51.6 20.24,12.29 34.67,10.08 23.33,-15.53 -58.59,-51.38 -121.16,-99.89 -191.82,-133.53 5,8.98 33.56,32.9 7.95,22.16 -367.67,-124.99 -778.7,-111.22 -1134.3,46.74 4.86,-9.94 10.01,-19.8 15.09,-29.66 -72.94,52.18 -150.01,103.41 -203.81,176.51" /><path
         id="path162"
         style="fill:#d18ebe;fill-opacity:1;fill-rule:nonzero;stroke:none"
         d="m 3235.79,967.277 c 140.96,96.863 269.85,211.993 380.04,342.643 -18.92,-70.15 -44.24,-139.12 -75.89,-204.55 C 3395.52,993.336 3256.62,869.379 3091,788.633 c -10.82,-2.723 -16.11,1.765 -16.04,13.543 52.63,57.191 95.69,122.187 139.19,186.375 -7.88,-20.981 0.07,-32.61 21.64,-21.274" /><path
         id="path164"
         style="fill:#d894bf;fill-opacity:1;fill-rule:nonzero;stroke:none"
         d="M 93.4063,1279.82 C 215.742,1153.21 344.117,1030.88 490.668,932.461 c 8.687,-8.906 18.992,-1.547 28.117,2.137 31.945,-41.368 63.156,-83.399 95.399,-124.621 -7.364,-3.532 -13.84,-19.797 -22.969,-12.879 -163.406,101.945 -322.106,215.522 -452.684,358.242 -18.476,40.05 -35.187,81.41 -45.1247,124.48" /><path
         id="path166"
         style="fill:#a7a6e1;fill-opacity:1;fill-rule:nonzero;stroke:none"
         d="m 1244.7,1229.91 c 355.6,-157.96 766.63,-171.73 1134.3,-46.74 25.61,10.74 -2.95,-13.18 -7.95,-22.16 -338.08,-198.295 -786.87,-178.494 -1111.26,39.24 -5.08,9.86 -10.23,19.72 -15.09,29.66" /><path
         id="path168"
         style="fill:#e6a1c0;fill-opacity:1;fill-rule:nonzero;stroke:none"
         d="m 138.531,1155.34 c 130.578,-142.72 289.278,-256.297 452.684,-358.242 9.129,-6.918 15.605,9.347 22.969,12.879 38.347,-42.25 76.183,-85.016 116.371,-125.575 -53.805,-7.652 -98.926,41.59 -144.563,63.157 -140.519,75.964 -262.117,179.824 -389.387,274.631 -22.964,42.69 -40.632,88.03 -58.074,133.15" /><path
         id="path170"
         style="fill:#e19dc0;fill-opacity:1;fill-rule:nonzero;stroke:none"
         d="m 3091,788.633 c 165.62,80.746 304.52,204.703 448.94,316.737 -16.49,-41.15 -33.86,-81.93 -56.46,-120.206 -150.6,-122.187 -314.38,-228.109 -487.72,-315.039 -17.15,-7.289 -36.22,-18.992 -54.84,-8.98 43.43,48.21 93.33,90.316 134.04,141.031 -0.07,-11.778 5.22,-16.266 16.04,-13.543" /><path
         id="path172"
         style="fill:#b877bc;fill-opacity:1;fill-rule:nonzero;stroke:none"
         d="m 653.711,1060.02 c 56.602,-14.64 92.965,-73.606 148.613,-95.614 641.416,-378.562 1484.006,-383.64 2126.526,-7.066 21.42,23.996 42.32,52.11 75.81,58.37 -130.72,-141.03 -287.58,-260.718 -463.43,-339.55 -453.2,-121.969 -944.6,-135.144 -1390.16,26.129 -25.39,9.277 -50.56,22.156 -78.46,17.52 C 914.5,806.52 768.465,920.391 653.711,1060.02" /><path
         id="path174"
         style="fill:#f3adc1;fill-opacity:1;fill-rule:nonzero;stroke:none"
         d="m 196.605,1022.19 c 127.27,-94.807 248.868,-198.667 389.387,-274.631 45.637,-21.567 90.758,-70.809 144.563,-63.157 32.019,-26.277 63.082,-53.73 94.293,-81.039 -0.368,-5.668 -1.106,-16.859 -1.399,-22.527 C 616.684,668.211 426.41,790.547 248.5,926.645 c -18.402,31.21 -36.07,62.937 -51.895,95.545" /><path
         id="path176"
         style="fill:#efaac1;fill-opacity:1;fill-rule:nonzero;stroke:none"
         d="m 2995.76,670.125 c 173.34,86.93 337.12,192.852 487.72,315.039 -19.87,-37.906 -40.41,-75.594 -65.8,-110.191 -179.16,-130.727 -373.41,-246.657 -583.05,-320.633 -1.1,3.531 -3.39,10.598 -4.49,14.058 37.69,30.032 75.52,59.844 110.78,92.747 18.62,-10.012 37.69,1.691 54.84,8.98" /><path
         id="path178"
         style="fill:#febac2;fill-opacity:1;fill-rule:nonzero;stroke:none"
         d="M 248.5,926.645 C 426.41,790.547 616.684,668.211 823.449,580.836 c 0.293,5.668 1.031,16.859 1.399,22.527 42.543,-36.215 88.843,-67.574 133.965,-100.55 3.679,-10.45 22.304,-33.786 -1.25,-23.333 C 728.125,560.375 507.82,674.172 314.969,823.227 288.176,854.438 268.375,890.801 248.5,926.645" /><path
         id="path180"
         style="fill:#fcb8c2;fill-opacity:1;fill-rule:nonzero;stroke:none"
         d="m 2834.63,554.34 c 209.64,73.976 403.89,189.906 583.05,320.633 -19.66,-41.957 -49.25,-78.172 -76.48,-115.414 -176.15,-115.86 -365.76,-211.11 -563.91,-283.391 -30.03,-6.477 -87.74,-47.402 -100.4,-12.367 52.63,32.609 104.38,66.617 153.25,104.597 1.1,-3.46 3.39,-10.527 4.49,-14.058" /><path
         id="path182"
         style="fill:#ffc8c1;fill-opacity:1;fill-rule:nonzero;stroke:none"
         d="M 314.969,823.227 C 507.82,674.172 728.125,560.375 957.563,479.48 c 23.554,-10.453 4.929,12.883 1.25,23.333 133.077,-84.352 276.247,-153.102 426.777,-200.063 -310.7,58.516 -612.27,171.281 -887.266,328.141 -12,8.023 -25.617,10.672 -38.496,2.722 -54.027,58.446 -102.242,122.41 -144.859,189.614" /><path
         id="path184"
         style="fill:#cba2d4;fill-opacity:1;fill-rule:nonzero;stroke:none"
         d="m 1764.82,756.246 c 55.28,2.059 110.63,2.281 165.91,-0.812 -54.77,-9.422 -111.08,-5.446 -165.91,0.812" /><path
         id="path186"
         style="fill:#ffc8c1;fill-opacity:1;fill-rule:nonzero;stroke:none"
         d="m 2777.29,476.168 c 198.15,72.281 387.76,167.531 563.91,283.391 -46.3,-69.633 -104.97,-129.774 -158.85,-193.368 1.4,17.813 -15.6,17.075 -27.01,10.379 -277.65,-144.492 -579.81,-246.144 -890.07,-287.953 143.17,42.84 283.98,96.496 411.62,175.184 12.66,-35.035 70.37,5.89 100.4,12.367" /><path
         id="path188"
         style="fill:#c685be;fill-opacity:1;fill-rule:nonzero;stroke:none"
         d="m 1072.61,719.809 c 27.9,4.636 53.07,-8.243 78.46,-17.52 C 1596.63,541.016 2088.03,554.191 2541.23,676.16 2085.67,444.957 1514.4,466.23 1072.61,719.809" /><path
         id="path190"
         style="fill:#ffc9b4;fill-opacity:1;fill-rule:nonzero;stroke:none"
         d="m 459.828,633.613 c 12.879,7.95 26.496,5.301 38.496,-2.722 274.996,-156.86 576.566,-269.625 887.266,-328.141 285.08,-87.668 591.36,-85.461 879.68,-14.133 310.26,41.809 612.42,143.461 890.07,287.953 11.41,6.696 28.41,7.434 27.01,-10.379 -38.42,-42.324 -84.8,-76.332 -125.28,-116.668 -2.72,24.438 -31.28,11.332 -45.56,5.739 C 2628.6,285.891 2207.71,206.469 1789.62,215.082 1378.01,230.023 970.516,336.461 602.332,520.699 c -20.391,12.59 -5.449,-18.547 -6.918,-28.851 -47.625,44.824 -95.473,90.019 -135.586,141.765" /><path
         id="path192"
         style="fill:#ffc7a7;fill-opacity:1;fill-rule:nonzero;stroke:none"
         d="m 595.414,491.848 c 1.469,10.304 -13.473,41.441 6.918,28.851 368.184,-184.238 775.678,-290.676 1187.288,-305.617 418.09,-8.613 838.98,70.809 1221.89,240.18 14.28,5.593 42.84,18.699 45.56,-5.739 -49.46,-42.839 -101.43,-82.738 -155.24,-120.054 0.44,10.746 11.05,33.344 -8.61,22.742 C 2355.08,154.871 1757.31,109.086 1199.8,250.34 c -158.77,33.418 -309.812,93.187 -461.073,150.086 -16.27,6.918 -29.739,7.73 -20.243,-13.399 -42.988,32.61 -82.589,69.34 -123.07,104.821" /><path
         id="path194"
         style="fill:#ffc599;fill-opacity:1;fill-rule:nonzero;stroke:none"
         d="m 718.484,387.027 c -9.496,21.129 3.973,20.317 20.243,13.399 151.261,-56.899 302.303,-116.668 461.073,-150.086 557.51,-141.254 1155.28,-95.469 1693.42,101.871 19.66,10.602 9.05,-11.996 8.61,-22.742 -57.12,-41.957 -119.61,-76.332 -182.1,-109.602 -3.98,27.379 -36.22,10.082 -54.69,8.168 C 2108.34,76.332 1507.78,84.7969 959.551,267.934 c -24.586,7.285 -80.235,28.117 -46.965,-11.411 -67.719,38.715 -133.156,81.852 -194.102,130.504" /><path
         id="path196"
         style="fill:#ffc48a;fill-opacity:1;fill-rule:nonzero;stroke:none"
         d="m 912.586,256.523 c -33.27,39.528 22.379,18.696 46.965,11.411 C 1507.78,84.7969 2108.34,76.332 2665.04,228.035 c 18.47,1.914 50.71,19.211 54.69,-8.168 C 2485.29,90.0977 2220.59,22.1563 1954.65,0 L 1748.84,0 C 1456.77,25.6875 1164.11,101.359 912.586,256.523" /></g></g></svg>